<svg version="1.1" xmlns="http://www.w3.org/2000/svg" xmlns:xlink="http://www.w3.org/1999/xlink">
<defs>
<symbol id="wci-city" viewBox="0 0 32 32">
<title>city</title>
<path d="M25.313 21h6.688v2h-32v-2h6.75c-0.438-0.5-0.75-1.25-0.75-2 0 0 0 0 0-0.063v0-6.938c0-1.688 1.375-3 3-3h3.625c1.75 0 3.5 0.5 5 1.5l3.125 2.063c0.375 0.25 0.813 0.438 1.313 0.5 1.75 0.25 3.375 1 3.438 1.063l0.563 0.25v4.625c0 0.75-0.313 1.5-0.75 2zM20.813 21c-0.25-0.25-0.438-0.625-0.563-1h-8.438c-0.125 0.375-0.313 0.75-0.563 1zM9 11c-0.563 0-1 0.438-1 1v4.188c0.313-0.125 0.688-0.188 1-0.188 1.313 0 2.438 0.875 2.813 2h8.438c0.375-1.125 1.5-2 2.813-2 0.313 0 0.688 0.063 1 0.188v-0.5c-0.563-0.25-1.375-0.5-2.25-0.625-0.125 0-0.188-0.063-0.313-0.063h-12.5v-2h2v-1h2v1h4.75l-1.25-0.813c-1.188-0.813-2.5-1.188-3.875-1.188zM10 19c0-0.563-0.438-1-1-1s-1 0.438-1 1c0 0.563 0.438 1 1 1s1-0.438 1-1zM22.063 19c0 0.563 0.438 1 1 1s1-0.438 1-1c0-0.563-0.438-1-1-1s-1 0.438-1 1z"></path>
</symbol>
<symbol id="wci-convertible" viewBox="0 0 32 32">
<title>convertible</title>
<path d="M4.75 20.938c-0.25-0.25-0.438-0.625-0.563-1h-0.188c-1.688 0-3-1.313-3-3v-4h18.688l-1.25-0.813c-0.75-0.5-1.563-0.813-2.438-1v-2.063c1.25 0.188 2.438 0.688 3.563 1.375l3 2.063c0.438 0.25 0.875 0.375 1.375 0.438h0.063c0 0 0.063 0 0.125 0.063 4.313 0.125 6.188 1 6.313 1.063l0.563 0.25v5.625h-2.188c-0.125 0.375-0.375 0.75-0.625 1h3.813v2h-32v-2zM9.188 20.938h14.563c-0.25-0.25-0.438-0.625-0.563-1h-13.375c-0.125 0.375-0.375 0.75-0.625 1zM29 17.938v-2.313c-0.813-0.188-2.375-0.563-4.938-0.625-0.063-0.063-0.125-0.063-0.188-0.063h-20.875v2c0 0.563 0.438 1 1 1h0.188c0.375-1.125 1.5-2 2.813-2 1.25 0 2.375 0.875 2.813 2h13.375c0.375-1.125 1.5-2 2.813-2 1.25 0 2.375 0.875 2.813 2zM27 18.938c0-0.563-0.5-1-1-1-0.563 0-1 0.438-1 1s0.438 1 1 1c0.5 0 1-0.438 1-1zM8 18.938c0-0.563-0.5-1-1-1-0.563 0-1 0.438-1 1s0.438 1 1 1c0.5 0 1-0.438 1-1z"></path>
</symbol>
<symbol id="wci-coupe" viewBox="0 0 32 32">
<title>coupe</title>
<path d="M4.75 21c-0.25-0.25-0.438-0.625-0.563-1h-0.188c-1.625 0-3-1.313-3-3v-4h2c0.375 0 0.75-0.125 1-0.375l2.125-2.125c0.938-1 2.188-1.5 3.563-1.5h2.875c1.813 0 3.5 0.5 5 1.5l3 2c0.5 0.313 1.063 0.5 1.625 0.5h0.813c5.188 0 7.375 1.063 7.438 1.125l0.563 0.25v5.625h-2.188c-0.125 0.375-0.313 0.75-0.563 1h3.75v2h-32v-2zM9.25 21h14.5c-0.25-0.25-0.438-0.625-0.563-1h-13.375c-0.125 0.375-0.313 0.75-0.563 1zM29 18v-2.313c-0.875-0.25-2.75-0.688-6-0.688h-17l1.688-1.688c0.188-0.188 0.438-0.313 0.75-0.313h1.563v-1h2v1h5.688l-1.25-0.813c-1.125-0.75-2.5-1.188-3.875-1.188h-2.875c-0.813 0-1.563 0.313-2.125 0.875l-2.125 2.125c-0.688 0.625-1.5 1-2.438 1v0 2c0 0.563 0.438 1 1 1h0.188c0.438-1.125 1.5-2 2.813-2s2.375 0.875 2.813 2h13.375c0.438-1.125 1.5-2 2.813-2s2.375 0.875 2.813 2zM27 19c0-0.563-0.438-1-1-1s-1 0.438-1 1c0 0.563 0.438 1 1 1s1-0.438 1-1zM8 19c0-0.563-0.438-1-1-1s-1 0.438-1 1c0 0.563 0.438 1 1 1s1-0.438 1-1z"></path>
</symbol>
<symbol id="wci-electric" viewBox="0 0 32 32">
<title>electric</title>
<path d="M5.75 21c-0.25-0.25-0.438-0.625-0.563-1h-0.188c-1.625 0-3-1.313-3-3v-5.688l3.625-1.25c2.125-0.688 4.375-1.063 6.625-1.063h1.313c1.813 0 3.5 0.5 5 1.5l3 2c0.5 0.313 1 0.5 1.563 0.5 4.313 0.188 6.25 1.063 6.313 1.125l0.563 0.25v5.625h-2.188c-0.125 0.375-0.313 0.75-0.563 1h4.75v2h-32v-2zM10.25 21h12.5c-0.25-0.25-0.438-0.625-0.563-1h-11.375c-0.125 0.375-0.313 0.75-0.563 1zM28 18v-2.313c-0.75-0.188-2.375-0.625-4.938-0.688h-14.063c-1.438 0-2.625-0.688-3.375-1.75l0.938-0.313c0.375-0.125 0.75-0.25 1.188-0.375 0.313 0.313 0.75 0.438 1.25 0.438h3v-1h2v1h4.75l-1.313-0.813c-1.125-0.75-2.5-1.188-3.875-1.188h-1.313c-2.063 0-4.063 0.313-6 1l-2.25 0.75v4.25c0 0.563 0.438 1 1 1h0.188c0.438-1.125 1.5-2 2.813-2s2.375 0.875 2.813 2h11.375c0.438-1.125 1.5-2 2.813-2s2.375 0.875 2.813 2zM26 19c0-0.563-0.438-1-1-1s-1 0.438-1 1c0 0.563 0.438 1 1 1s1-0.438 1-1zM9 19c0-0.563-0.438-1-1-1s-1 0.438-1 1c0 0.563 0.438 1 1 1s1-0.438 1-1z"></path>
</symbol>
<symbol id="wci-estate" viewBox="0 0 32 32">
<title>estate</title>
<path d="M5.75 21c-0.25-0.25-0.438-0.625-0.563-1h-2.188c-1.625 0-3-1.313-3-3v-3.375l3.125-3.125c0.938-1 2.188-1.5 3.563-1.5h8.875c1.813 0 3.5 0.5 5 1.5l3 2c0.438 0.313 0.938 0.438 1.375 0.5h0.063c0.063 0 0.063 0 0.125 0 4.313 0.188 6.25 1.063 6.313 1.125l0.563 0.25v5.625h-2.188c-0.125 0.375-0.313 0.75-0.563 1h2.75v2h-32v-2zM10.25 21h14.5c-0.25-0.25-0.438-0.625-0.563-1h-13.375c-0.125 0.375-0.313 0.75-0.563 1zM30 18v-2.313c-0.75-0.188-2.375-0.563-4.938-0.688-0.063 0-0.125 0-0.188 0h-21.875l2-2h4v-1h2v1h3v-1h2v1h4.688l-1.25-0.813c-1.125-0.75-2.5-1.188-3.875-1.188h-8.875c-0.813 0-1.563 0.313-2.125 0.875l-2.563 2.563v2.563c0 0.563 0.438 1 1 1h2.188c0.438-1.125 1.5-2 2.813-2s2.375 0.875 2.813 2h13.375c0.438-1.125 1.5-2 2.813-2s2.375 0.875 2.813 2zM28 19c0-0.563-0.438-1-1-1s-1 0.438-1 1c0 0.563 0.438 1 1 1s1-0.438 1-1zM9 19c0-0.563-0.438-1-1-1s-1 0.438-1 1c0 0.563 0.438 1 1 1s1-0.438 1-1z"></path>
</symbol>
<symbol id="wci-executive" viewBox="0 0 32 32">
<title>executive</title>
<path d="M3.75 21c-0.25-0.25-0.438-0.625-0.563-1h-0.188c-1.625 0-3-1.313-3-3v-4h4c0.375 0 0.75-0.125 1-0.375l2.125-2.125c0.938-1 2.188-1.5 3.5-1.5h4.938c1.813 0 3.5 0.5 5 1.5l3 2c0.438 0.313 0.938 0.438 1.375 0.5h0.063c0.063 0 0.063 0 0.125 0 4.313 0.188 6.25 1.063 6.313 1.125l0.563 0.25v5.625h-2.188c-0.125 0.375-0.313 0.75-0.563 1h2.75v2h-31.938v-2zM8.25 21h16.5c-0.25-0.25-0.438-0.625-0.563-1h-15.375c-0.125 0.375-0.313 0.75-0.563 1zM30 18v-2.313c-0.75-0.188-2.375-0.563-4.938-0.688-0.063 0-0.125 0-0.188 0h-17.875l2.438-2.375c0.375-0.438 0.875-0.625 1.375-0.625h0.188v1h3v-1h2v1h4.688l-1.25-0.813c-1.125-0.75-2.5-1.188-3.875-1.188h-4.938c-0.75 0-1.5 0.313-2.125 0.875l-2.125 2.125c-0.625 0.625-1.438 1-2.375 1h-2v2c0 0.563 0.438 1 1 1h0.188c0.438-1.125 1.5-2 2.813-2s2.375 0.875 2.813 2h15.375c0.438-1.125 1.5-2 2.813-2s2.375 0.875 2.813 2zM28 19c0-0.563-0.438-1-1-1s-1 0.438-1 1c0 0.563 0.438 1 1 1s1-0.438 1-1zM7 19c0-0.563-0.438-1-1-1s-1 0.438-1 1c0 0.563 0.438 1 1 1s1-0.438 1-1z"></path>
</symbol>
<symbol id="wci-family" viewBox="0 0 32 32">
<title>family</title>
<path d="M4.75 21c-0.25-0.25-0.438-0.625-0.563-1h-0.188c-1.625 0-3-1.313-3-3v-4h2c0.375 0 0.75-0.125 1-0.375l2.125-2.125c0.938-1 2.188-1.5 3.563-1.5h4.875c1.813 0 3.5 0.5 5 1.5l3 2c0.438 0.313 0.875 0.438 1.375 0.5h0.063c0.063 0 0.063 0 0.125 0 4.313 0.188 6.25 1.063 6.313 1.125l0.563 0.25v5.625h-2.188c-0.125 0.375-0.313 0.75-0.563 1h3.75v2h-32v-2zM9.25 21h14.5c-0.25-0.25-0.438-0.625-0.563-1h-13.375c-0.125 0.375-0.313 0.75-0.563 1zM27 19c0-0.563-0.438-1-1-1s-1 0.438-1 1c0 0.563 0.438 1 1 1s1-0.438 1-1zM8 19c0-0.563-0.438-1-1-1s-1 0.438-1 1c0 0.563 0.438 1 1 1s1-0.438 1-1zM29 18v-2.313c-0.75-0.188-2.375-0.563-4.938-0.688-0.063 0-0.125 0-0.188 0h-17.875l2.438-2.375c0.375-0.438 0.875-0.625 1.375-0.625h0.188v1h3v-1h2v1h4.688l-1.25-0.813c-1.125-0.75-2.5-1.188-3.875-1.188h-4.875c-0.813 0-1.563 0.313-2.125 0.875l-2.125 2.125c-0.688 0.625-1.5 1-2.438 1v0 2c0 0.563 0.438 1 1 1h0.188c0.438-1.125 1.5-2 2.813-2s2.375 0.875 2.813 2h13.375c0.438-1.125 1.5-2 2.813-2s2.375 0.875 2.813 2z"></path>
</symbol>
<symbol id="wci-hothatch" viewBox="0 0 32 32">
<title>hothatch</title>
<path d="M4.75 21c-0.25-0.25-0.438-0.625-0.563-1h-2.188v-6.438l2.625-2.563c-0.938-0.188-1.625-1-1.625-2h10.563c1.813 0 3.5 0.5 5 1.5l3 2c0.438 0.313 0.875 0.438 1.375 0.5h0.063c0.063 0 0.063 0 0.125 0 4.313 0.188 6.25 1.063 6.313 1.125l0.563 0.25v1.25c0.625 0.813 1 1.75 1 2.813v1.563h-3.188c-0.125 0.375-0.313 0.75-0.563 1h4.75v2h-32v-2zM9.25 21h13.5c-0.25-0.25-0.438-0.625-0.563-1h-12.375c-0.125 0.375-0.313 0.75-0.563 1zM27.813 18h1.125c-0.063-0.5-0.313-0.938-0.625-1.313l-0.313-0.25v-0.75c-0.75-0.188-2.375-0.563-4.938-0.688-0.063 0-0.125 0-0.188 0h-17.875l2.438-2.375c0.375-0.438 0.875-0.625 1.375-0.625h0.188v1h3v-1h2v1h4.688l-1.25-0.813c-1.125-0.75-2.5-1.188-3.875-1.188h-4.938c-0.75 0-1.5 0.313-2.063 0.875l-2.563 2.563v3.563h0.188c0.438-1.125 1.5-2 2.813-2s2.375 0.875 2.813 2h12.375c0.438-1.125 1.5-2 2.813-2s2.375 0.875 2.813 2zM26 19c0-0.563-0.438-1-1-1s-1 0.438-1 1c0 0.563 0.438 1 1 1s1-0.438 1-1zM8 19c0-0.563-0.438-1-1-1s-1 0.438-1 1c0 0.563 0.438 1 1 1s1-0.438 1-1z"></path>
</symbol>
<symbol id="wci-largesuv" viewBox="0 0 32 32">
<title>largesuv</title>
<path d="M5.063 21.5c-0.563-0.5-0.875-1.188-1-2h-1.063c-1.625 0-3-1.313-3-3v-3.438l3.125-3.125c0.938-0.938 2.188-1.438 3.563-1.438h8.875c1.813 0 3.5 0.5 5 1.5l3 2c0.438 0.313 0.938 0.438 1.375 0.5h0.063c0.063 0 0.063 0 0.125 0 4.313 0.188 6.25 1.063 6.313 1.125l0.563 0.25v5.625h-2.063c-0.125 0.813-0.438 1.5-1 2h3.063v2h-32v-2zM9.938 21.5h14.125c-0.563-0.5-0.875-1.188-1-2h-12.125c-0.125 0.813-0.438 1.5-1 2zM30 17.5v-2.313c-0.75-0.188-2.375-0.563-4.938-0.688-0.063 0-0.125 0-0.188 0h-21.875l2-2h4v-1h2v1h3v-1h2v1h4.688l-1.25-0.813c-1.125-0.75-2.5-1.188-3.875-1.188h-8.875c-0.813 0-1.563 0.313-2.125 0.875l-2.563 2.563v2.563c0 0.563 0.438 1 1 1h1.375c0.563-1.188 1.75-2 3.125-2s2.563 0.813 3.125 2h12.75c0.563-1.188 1.75-2 3.125-2s2.563 0.813 3.125 2zM28 19c0-0.813-0.688-1.5-1.5-1.5s-1.5 0.688-1.5 1.5c0 0.813 0.688 1.5 1.5 1.5s1.5-0.688 1.5-1.5zM9 19c0-0.813-0.688-1.5-1.5-1.5s-1.5 0.688-1.5 1.5c0 0.813 0.688 1.5 1.5 1.5s1.5-0.688 1.5-1.5z"></path>
</symbol>
<symbol id="wci-luxury" viewBox="0 0 32 32">
<title>luxury</title>
<path d="M5.75 21c-0.25-0.25-0.438-0.625-0.563-1h-2.188c-1.625 0-3-1.313-3-3v-4h3c0.375 0 0.75-0.125 1-0.375l2.125-2.125c0.938-1 2.188-1.5 3.563-1.5h5.875c1.813 0 3.5 0.5 5 1.5l3 2c0.438 0.313 0.938 0.438 1.375 0.5h4.063v-1h2v1.938c0.25 0.063 0.438 0.188 0.438 0.188l0.563 0.25v5.625h-2.188c-0.125 0.375-0.313 0.75-0.563 1h2.75v2h-32v-2zM10.25 21h14.5c-0.25-0.25-0.438-0.625-0.563-1h-13.375c-0.125 0.375-0.313 0.75-0.563 1zM30 18v-2.313c-0.75-0.188-2.375-0.563-4.938-0.688-0.063 0-0.125 0-0.188 0h-18.875l2.438-2.375c0.375-0.438 0.875-0.625 1.375-0.625h0.188v1h4v-1h2v1h4.688l-1.25-0.813c-1.125-0.75-2.5-1.188-3.875-1.188h-5.875c-0.813 0-1.563 0.313-2.125 0.875l-2.125 2.125c-0.688 0.625-1.5 1-2.438 1h-1v2c0 0.563 0.438 1 1 1h2.188c0.438-1.125 1.5-2 2.813-2s2.375 0.875 2.813 2h13.375c0.438-1.125 1.5-2 2.813-2s2.375 0.875 2.813 2zM28 19c0-0.563-0.438-1-1-1s-1 0.438-1 1c0 0.563 0.438 1 1 1s1-0.438 1-1zM9 19c0-0.563-0.438-1-1-1s-1 0.438-1 1c0 0.563 0.438 1 1 1s1-0.438 1-1z"></path>
</symbol>
<symbol id="wci-mpv" viewBox="0 0 32 32">
<title>mpv</title>
<path d="M3.75 21.5c-0.25-0.313-0.438-0.625-0.563-1h-0.188c-1.625 0-3-1.313-3-3v-3.188l1.563-3.938c0.438-1.125 1.563-1.875 2.813-1.875h12.25c1.75 0 3.438 0.5 4.875 1.438l4.563 2.938c0.688 0.438 1.438 0.75 2.188 0.938 0.313 0 0.625 0.063 0.875 0.125v0c1.563 0.313 2.25 0.625 2.313 0.688l0.563 0.25v5.625h-3.188c-0.125 0.375-0.313 0.688-0.563 1h3.75v2h-32v-2zM8.25 21.5h15.5c-0.25-0.313-0.438-0.625-0.563-1h-14.375c-0.125 0.375-0.313 0.688-0.563 1zM30 18.5v-2.313c-0.313-0.063-0.688-0.188-1.188-0.25l-0.188-0.063c-0.25 0-0.5-0.063-0.75-0.125-1-0.125-2.25-0.25-3.875-0.25h-21l0.813-2h5.188v-2h2v2h4v-2h2v2h6.375l-2.938-1.875c-1.125-0.75-2.438-1.125-3.813-1.125h-12.25c-0.438 0-0.813 0.25-0.938 0.625l-1.438 3.563v2.813c0 0.563 0.438 1 1 1h0.188c0.438-1.188 1.5-2 2.813-2s2.375 0.813 2.813 2h14.375c0.438-1.188 1.5-2 2.813-2s2.375 0.813 2.813 2zM27 19.5c0-0.563-0.438-1-1-1s-1 0.438-1 1c0 0.563 0.438 1 1 1s1-0.438 1-1zM7 19.5c0-0.563-0.438-1-1-1s-1 0.438-1 1c0 0.563 0.438 1 1 1s1-0.438 1-1z"></path>
</symbol>
<symbol id="wci-small" viewBox="0 0 32 32">
<title>small</title>
<path d="M27.25 21h4.75v2h-32v-2h4.75c-0.25-0.312-0.5-0.688-0.625-1.125-1.187-0.375-2.125-1.5-2.125-2.875v-3.375l3.125-3.125c0.937-1 2.188-1.5 3.562-1.5h4.875c1.812 0 3.5 0.5 5 1.5l3 2c0.438 0.312 0.875 0.438 1.375 0.5h0.062c0.062 0 0.062 0 0.125 0 4.313 0.187 6.25 1.062 6.312 1.125l0.563 0.25v5.625h-2.188c-0.125 0.375-0.312 0.75-0.563 1zM22.75 21c-0.25-0.25-0.438-0.625-0.563-1h-12.375c-0.125 0.375-0.312 0.75-0.563 1zM8 19c0-0.563-0.438-1-1-1s-1 0.438-1 1c0 0.563 0.438 1 1 1s1-0.438 1-1zM26 19c0-0.563-0.438-1-1-1s-1 0.438-1 1c0 0.563 0.438 1 1 1s1-0.438 1-1zM28 18v-2.313c-0.75-0.187-2.375-0.563-4.938-0.688-0.062 0-0.125 0-0.187 0h-17.875l2.438-2.375c0.375-0.438 0.875-0.625 1.375-0.625h0.187v1h3v-1h2v1h4.688l-1.25-0.813c-1.125-0.75-2.5-1.187-3.875-1.187h-4.875c-0.813 0-1.563 0.312-2.125 0.875l-2.563 2.563v2.563c0 0.312 0.125 0.563 0.312 0.75 0.5-1.062 1.5-1.75 2.687-1.75 1.313 0 2.375 0.875 2.812 2h12.375c0.438-1.125 1.5-2 2.812-2s2.375 0.875 2.812 2z"></path>
</symbol>
<symbol id="wci-smallsuv" viewBox="0 0 32 32">
<title>smallsuv</title>
<path d="M6.063 21.5c-0.563-0.5-0.875-1.188-1-2h-0.063c-1.625 0-3-1.313-3-3v-3.438l3.125-3.125c0.938-0.938 2.188-1.438 3.563-1.438h4.875c1.813 0 3.5 0.5 5 1.5l3 2c0.438 0.313 0.875 0.438 1.375 0.5h0.063c0.063 0 0.063 0 0.125 0 4.313 0.188 6.25 1.063 6.313 1.125l0.563 0.25v5.625h-2.063c-0.125 0.813-0.438 1.5-1 2h5.063v2h-32v-2zM10.938 21.5h11.125c-0.563-0.5-0.875-1.188-1-2h-9.125c-0.125 0.813-0.438 1.5-1 2zM28 17.5v-2.313c-0.75-0.188-2.375-0.563-4.938-0.688-0.063 0-0.125 0-0.188 0h-17.875l2.438-2.438c0.375-0.375 0.875-0.563 1.375-0.563h0.188v1h3v-1h2v1h4.688l-1.25-0.813c-1.125-0.75-2.5-1.188-3.875-1.188h-4.875c-0.813 0-1.563 0.313-2.125 0.875l-2.563 2.563v2.563c0 0.563 0.438 1 1 1h0.375c0.563-1.188 1.75-2 3.125-2s2.563 0.813 3.125 2h9.75c0.563-1.188 1.75-2 3.125-2s2.563 0.813 3.125 2zM26 19c0-0.813-0.688-1.5-1.5-1.5s-1.5 0.688-1.5 1.5c0 0.813 0.688 1.5 1.5 1.5s1.5-0.688 1.5-1.5zM10 19c0-0.813-0.688-1.5-1.5-1.5s-1.5 0.688-1.5 1.5c0 0.813 0.688 1.5 1.5 1.5s1.5-0.688 1.5-1.5z"></path>
</symbol>
<symbol id="wci-sports" viewBox="0 0 32 32">
<title>sports</title>
<path d="M4.75 20.938c-0.25-0.313-0.438-0.688-0.563-1h-1.188c-1.625 0-3-1.375-3-3v-4.063h1c1.563 0.063 3.25-0.375 5.125-1.313 5-2.5 11.063-2.125 15.75 1l1.375 0.875c0.25-0.063 0.438-0.063 0.625-0.125 1.125-0.125 2.25-0.063 3.313 0.25l4.813 1.625v4.75h-4.188c-0.125 0.313-0.313 0.688-0.563 1h4.75v2h-32v-2zM9.25 20.938h13.5c-0.25-0.313-0.438-0.688-0.563-1h-12.375c-0.125 0.313-0.313 0.688-0.563 1zM30 17.938v-1.313l-3.438-1.125c-1-0.375-2.125-0.375-3.125 0l-1.25 0.375v0.063h-8.75c-0.563 0-1.063-0.25-1.438-0.625l-2-2c0.813-0.188 1.625-0.313 2.438-0.375l1 1h6.875c-4.063-2.438-9.063-2.688-13.313-0.563-1.75 0.875-3.438 1.375-5 1.5v2.063c0 0.5 0.438 1 1 1h1.188c0.438-1.188 1.5-2 2.813-2s2.375 0.813 2.813 2h12.375c0.438-1.188 1.5-2 2.813-2s2.375 0.813 2.813 2zM26 18.938c0-0.563-0.438-1-1-1s-1 0.438-1 1c0 0.5 0.438 1 1 1s1-0.5 1-1zM8 18.938c0-0.563-0.438-1-1-1s-1 0.438-1 1c0 0.5 0.438 1 1 1s1-0.5 1-1z"></path>
</symbol>
<symbol id="wci-angle-down" viewBox="0 0 32 32">
<title>angle-down</title>
<path d="M16 25.197l-16-15.874 2.52-2.52 13.48 13.354 13.48-13.354 2.52 2.52z"></path>
</symbol>
<symbol id="wci-angle-left" viewBox="0 0 32 32">
<title>angle-left</title>
<path d="M9.349 32l-2.51-2.51 13.302-13.553-13.302-13.427 2.51-2.51 15.812 15.937z"></path>
</symbol>
<symbol id="wci-angle-right" viewBox="0 0 32 32">
<title>angle-right</title>
<path d="M22.588 32l-15.686-16.063 15.686-15.937 2.51 2.51-13.302 13.427 13.302 13.553z"></path>
</symbol>
<symbol id="wci-angle-up" viewBox="0 0 32 32">
<title>angle-up</title>
<path d="M29.48 25.134l-13.48-13.354-13.48 13.354-2.52-2.52 16-15.748 16 15.748z"></path>
</symbol>
<symbol id="wci-arrow-down" viewBox="0 0 32 32">
<title>arrow-down</title>
<path d="M29.816 13.652l2.184 2.184-16.055 15.945-15.945-15.945 2.184-2.184 12.232 12.232v-25.666h3.058v25.775z"></path>
</symbol>
<symbol id="wci-arrow-down-left" viewBox="0 0 32 32">
<title>arrow-down-left</title>
<path d="M27.963 1.196h4.037v30.654h-30.804v-4.037h23.776l-24.972-24.673 2.991-2.991 24.972 24.673v-23.626z"></path>
</symbol>
<symbol id="wci-arrow-left" viewBox="0 0 32 32">
<title>arrow-left</title>
<path d="M31.836 14.466v3.069h-25.753l12.274 12.384-2.192 2.082-16-16 16-16 2.192 2.192-12.274 12.274z"></path>
</symbol>
<symbol id="wci-arrow-right" viewBox="0 0 32 32">
<title>arrow-right</title>
<path d="M15.837 0.163l16.163 15.837-16.163 15.837-2.278-2.061 12.475-12.258h-26.034v-3.037h26.034l-12.475-12.149z"></path>
</symbol>
<symbol id="wci-arrow-up" viewBox="0 0 32 32">
<title>arrow-up</title>
<path d="M32 16.164l-2.184 2.184-12.341-12.341v25.775h-3.058v-25.666l-12.232 12.232-2.184-2.184 15.945-15.945z"></path>
</symbol>
<symbol id="wci-arrow-up-left" viewBox="0 0 32 32">
<title>arrow-up-left</title>
<path d="M32 29.009l-2.841 2.991-24.972-24.822v23.776h-4.187v-30.953h30.953v4.187h-23.776z"></path>
</symbol>
<symbol id="wci-arrow-up-right" viewBox="0 0 32 32">
<title>arrow-up-right</title>
<path d="M1.121 0h30.804v30.953h-4.037v-23.776l-24.822 24.822-2.991-2.991 24.822-24.822h-23.776v-4.187z"></path>
</symbol>
<symbol id="wci-bin" viewBox="0 0 32 32">
<title>bin</title>
<path d="M24.595 28.973v-18.054h3.027v21.081h-23.243v-21.081h3.135v18.054zM11.081 10.919h3.135v15.027h-3.135zM17.892 10.919h3.027v15.027h-3.027zM23.189 5.405h6.27v3.027h-26.919v-3.027h6.27l1.838-5.405h10.703zM12.054 5.405h7.892l-0.757-2.378h-6.27z"></path>
</symbol>
<symbol id="wci-box" viewBox="0 0 32 32">
<title>box</title>
<path d="M28.571 28.468v-8.727h2.909v11.74h-30.338v-11.74h2.909v8.727zM25.974 0.519l6.026 8.312v8.623h-8.727v1.455c0 1.039-0.312 1.87-1.143 2.701-0.727 0.727-1.558 1.039-2.597 1.039h-6.442c-1.039 0-1.974-0.312-2.701-1.039-0.727-0.831-1.143-1.662-1.143-2.701v-1.455h-9.247v-8.623l6.026-8.312h19.948zM7.481 3.429l-3.844 5.299h24.727l-3.844-5.299h-17.039zM20.364 18.909v-1.455h-8.208v1.455c0 0.208 0.104 0.416 0.312 0.623 0.208 0.104 0.312 0.208 0.623 0.208h6.442c0.208 0 0.416-0.104 0.623-0.208 0.104-0.208 0.208-0.416 0.208-0.623zM29.091 14.545v-2.909h-26.182v2.909z"></path>
</symbol>
<symbol id="wci-briefcase" viewBox="0 0 32 32">
<title>briefcase</title>
<path d="M23.657 8.238h8.343v22.178h-32v-22.178h8.238v-3.908c0-0.739 0.317-1.373 0.845-1.901s1.056-0.845 1.795-0.845h10.139c0.739 0 1.373 0.317 1.901 0.845s0.739 1.162 0.739 1.901zM29.043 27.459v-16.264h-15.419v-2.957h7.076v-3.591h-9.505v6.548h-8.238v16.264z"></path>
</symbol>
<symbol id="wci-cityscape" viewBox="0 0 32 32">
<title>cityscape</title>
<path d="M16 19.404h4.766v3.234h-4.766v6.468h-3.234v-22.213l-12.766 2.553v-3.319l16-3.234zM25.617 19.064h6.383v3.234h-9.617v-9.702h3.234zM0 15.83v-3.234h9.617v3.234zM0 22.298v-3.234h9.617v3.234zM0 28.681v-3.149h9.617v3.149zM19.234 28.681v-3.149h3.149v3.149zM25.617 28.681v-3.149h3.149v3.149z"></path>
</symbol>
<symbol id="wci-close" viewBox="0 0 32 32">
<title>close</title>
<path d="M32 3.794l-12.701 12.206 12.701 12.371-3.299 3.134-12.701-12.206-12.701 12.206-3.299-3.134 12.701-12.371-12.701-12.206 3.299-3.299 12.701 12.371 12.701-12.371z"></path>
</symbol>
<symbol id="wci-diamond" viewBox="0 0 32 32">
<title>diamond</title>
<path d="M8.851 9.277h14.298l6.553 6.383-13.702 13.447-13.702-13.447zM5.787 9.787l-2.298 2.213-3.489-3.319 2.298-2.298zM32 8.681l-3.489 3.319-2.298-2.213 3.489-3.404zM14.383 7.745v-4.851h3.234v4.851zM21.872 18.894h-9.106l-3.234-3.234h15.574l-3.234-3.149h-11.66l-3.319 3.149 9.106 8.936z"></path>
</symbol>
<symbol id="wci-dog" viewBox="0 0 32 32">
<title>dog</title>
<path d="M22.617 20.148l-13.827-3.358-5.037 4.938v-0.691l2.667-6.617c0.296-0.691 0.988-1.185 1.778-1.185h9.481l4.938-4.741zM29.037 2.074h-5.333l-7.506 7.506h-10.568c-0.988 0-1.877-0.889-1.877-1.877h-3.753c0 2.173 1.284 4.049 3.16 4.938-0.099 0.099-0.198 0.296-0.198 0.395l-2.963 7.309v9.58h3.753v-2.963l6.222-6.123 8.889 2.173v6.914h3.753v-5.926l3.753 0.889v3.16h3.753v-3.852c0-1.284-0.889-2.37-2.173-2.765l-1.58-0.395v-13.333h5.63v-3.753h-4.84z"></path>
</symbol>
<symbol id="wci-expand" viewBox="0 0 32 32">
<title>expand</title>
<path d="M13.847 15.825l2.327 2.327-10.473 10.356h9.658v3.375h-15.36v-15.244h3.375v9.542zM16.64 0.116h15.36v15.127h-3.375v-9.542l-10.473 10.473-2.327-2.327 10.473-10.473h-9.658v-3.258z"></path>
</symbol>
<symbol id="wci-flame" viewBox="0 0 32 32">
<title>flame</title>
<path d="M23.688 23.896c0-1.87-0.831-3.844-2.286-5.299l-6.649-6.649c-1.455-1.455-1.455-3.74 0-5.195v0l1.247-1.247 6.545 6.649c3.221 3.221 3.636 8.208 1.143 11.74zM19.325 27.532c-1.558 1.558-4.26 1.558-5.818 0-1.558-1.662-1.558-4.26 0-5.818l2.909-2.909 2.909 2.909c1.662 1.558 1.662 4.156 0 5.818zM25.455 9.247l-6.649-6.545 2.701-2.701h-5.61l-3.948 3.948c-3.013 3.013-3.013 7.896 0 10.805l1.247 1.247-2.597 2.597c-1.455 1.455-2.286 3.429-2.286 5.299-2.182-3.221-2.078-7.481 0.208-10.701-0.727-1.662-0.935-3.429-0.727-5.195l-1.247 1.247c-5.091 5.195-5.091 13.61 0 18.805 2.597 2.494 5.922 3.948 9.455 3.948s6.857-1.455 9.455-3.948c5.091-5.195 5.091-13.61 0-18.805z"></path>
</symbol>
<symbol id="wci-fuel-tank" viewBox="0 0 32 32">
<title>fuel-tank</title>
<path d="M19.529 11.859l2.541 2.541c0.753 0.753 1.035 1.6 1.035 2.635s-0.282 1.882-1.035 2.635c-0.753 0.753-1.6 1.129-2.635 1.129s-1.882-0.376-2.635-1.129l-2.635-2.541c-0.659-0.753-1.035-1.6-1.035-2.635s0.376-1.976 1.035-2.635c0.753-0.753 1.6-1.129 2.635-1.129s1.976 0.376 2.729 1.129zM20.188 17.788c0.188-0.188 0.282-0.471 0.282-0.753s-0.094-0.565-0.282-0.753l-2.541-2.541c-0.282-0.188-0.471-0.376-0.847-0.376-0.282 0-0.471 0.188-0.753 0.376-0.188 0.188-0.282 0.376-0.282 0.753 0 0.282 0.094 0.565 0.282 0.753l2.635 2.541c0.188 0.188 0.471 0.282 0.753 0.282s0.565-0.094 0.753-0.282zM25.459 10.541c0.565 0.565 1.035 1.129 1.318 1.788 0.376 0.659 0.659 1.224 0.847 1.788 0.094 0.659 0.188 1.129 0.282 1.506 0.094 0.471 0.094 0.847 0.094 1.224v10.635c0 1.224-0.471 2.259-1.412 3.106-0.941 0.941-1.976 1.412-3.106 1.412h-14.965c-1.129 0-2.165-0.471-3.106-1.412-0.941-0.847-1.412-1.882-1.412-3.106v-17.035c0-1.129 0.471-2.165 1.318-3.012 0.847-0.941 1.882-1.412 3.012-1.506v-5.929h10.071v6.024c1.976 0.282 3.576 1.035 4.988 2.353zM25.365 27.482v-10.635c0-0.282-0.094-0.471-0.094-0.753s-0.094-0.659-0.188-1.035c-0.094-0.471-0.282-0.941-0.565-1.318-0.282-0.471-0.565-0.941-0.941-1.318l-2.071-2.165c-0.376-0.376-0.847-0.659-1.318-0.941-0.471-0.188-0.941-0.376-1.318-0.471-0.471-0.094-0.753-0.188-1.035-0.282-0.282 0-0.565 0-0.753 0h-4.047v-2.635h2.729v-3.2h-4.8v5.835h-2.447c-0.376 0-0.847 0.188-1.224 0.565-0.376 0.471-0.565 0.847-0.565 1.318v17.035c0 0.471 0.188 0.847 0.565 1.224 0.376 0.471 0.847 0.659 1.224 0.659h14.965c0.376 0 0.847-0.188 1.224-0.659 0.376-0.376 0.659-0.753 0.659-1.224z"></path>
</symbol>
<symbol id="wci-largesuv-1" viewBox="0 0 32 32">
<title>largesuv-1</title>
<path d="M8.256 18.115l4.64 4.571h19.104l-10.849-10.78-2.593 2.593-5.186-5.185-4.23 4.23 1.842 1.842 2.388-2.456 5.186 5.186 2.593-2.593 4.64 4.64h-11.872l-5.663-5.663-8.256 8.188h3.616l4.64-4.571"></path>
</symbol>
<symbol id="wci-lightning" viewBox="0 0 32 32">
<title>lightning</title>
<path d="M32 10.994h-12.603v-9.117l-19.397 19.218h12.603l3.397-3.397h-7.777l7.777-7.687v4.38h7.777l-7.777 7.687v-0.089l-3.397 3.397v4.737l19.397-19.128"></path>
</symbol>
<symbol id="wci-loading" viewBox="0 0 32 32">
<title>loading</title>
<path d="M16.327 4.735c-1.306 0-2.449-1.061-2.449-2.367s1.143-2.367 2.449-2.367c1.388 0 2.531 1.061 2.531 2.367s-1.143 2.367-2.531 2.367zM9.143 6.449c-1.306 0-2.286-0.98-2.286-2.204s0.98-2.204 2.286-2.204c1.224 0 2.286 0.98 2.286 2.204s-1.061 2.204-2.286 2.204zM3.837 11.592c-1.224 0-2.286-0.98-2.286-2.204s1.061-2.286 2.286-2.286c1.306 0 2.286 1.061 2.286 2.286s-0.98 2.204-2.286 2.204zM2.041 18.204c-1.143 0-2.041-0.898-2.041-1.959s0.898-1.959 2.041-1.959c1.061 0 1.959 0.898 1.959 1.959s-0.898 1.959-1.959 1.959zM3.918 25.224c-1.061 0-2.041-0.898-2.041-1.959 0-1.143 0.98-1.959 2.041-1.959 1.143 0 2.041 0.816 2.041 1.959 0 1.061-0.898 1.959-2.041 1.959zM9.225 29.959c-0.898 0-1.714-0.735-1.714-1.633s0.816-1.551 1.714-1.551c0.898 0 1.633 0.653 1.633 1.551s-0.735 1.633-1.633 1.633zM16.408 32c-0.898 0-1.633-0.735-1.633-1.633s0.735-1.551 1.633-1.551c0.98 0 1.714 0.653 1.714 1.551s-0.735 1.633-1.714 1.633zM23.51 29.959c-0.98 0-1.714-0.735-1.714-1.633s0.735-1.551 1.714-1.551c0.898 0 1.633 0.653 1.633 1.551s-0.735 1.633-1.633 1.633zM28.653 24.898c-0.816 0-1.551-0.735-1.551-1.551 0-0.898 0.735-1.551 1.551-1.551 0.898 0 1.633 0.653 1.633 1.551 0 0.816-0.735 1.551-1.633 1.551zM30.694 17.551c-0.735 0-1.306-0.571-1.306-1.306s0.571-1.306 1.306-1.306c0.735 0 1.306 0.571 1.306 1.306s-0.571 1.306-1.306 1.306zM28.653 10.531c-0.653 0-1.224-0.49-1.224-1.143s0.571-1.224 1.224-1.224c0.735 0 1.224 0.571 1.224 1.224s-0.49 1.143-1.224 1.143zM23.592 5.469c-0.735 0-1.224-0.571-1.224-1.224s0.49-1.224 1.224-1.224c0.653 0 1.224 0.571 1.224 1.224s-0.571 1.224-1.224 1.224z"></path>
</symbol>
<symbol id="wci-map-marker" viewBox="0 0 32 32">
<title>map-marker</title>
<path d="M16.050 6.758c0.994 0 1.789 0.397 2.484 1.093s1.093 1.59 1.093 2.584c0 0.994-0.398 1.888-1.093 2.584s-1.491 0.994-2.484 0.994c-0.994 0-1.888-0.298-2.584-0.994s-1.093-1.59-1.093-2.584c0-0.994 0.398-1.888 1.093-2.584s1.59-1.093 2.584-1.093zM16.050 0c1.491 0 2.981 0.298 4.373 0.994 1.391 0.596 2.584 1.391 3.677 2.385 0.994 1.093 1.789 2.286 2.385 3.677 0.596 1.491 0.894 2.981 0.894 4.472 0 1.292-0.099 2.484-0.398 3.578-0.298 1.193-0.696 2.286-1.292 3.379-0.497 0.994-1.093 1.988-1.59 2.783s-1.193 1.689-1.988 2.783l-6.062 7.95-1.093-1.391c-2.484-3.18-4.075-5.366-5.068-6.559-0.795-1.093-1.491-1.988-1.988-2.783s-1.093-1.789-1.59-2.783c-0.596-1.093-0.994-2.186-1.292-3.379-0.199-1.093-0.397-2.286-0.397-3.578 0-1.491 0.298-2.981 0.894-4.472 0.596-1.391 1.391-2.584 2.484-3.677 0.994-0.994 2.186-1.789 3.578-2.385 1.391-0.696 2.882-0.994 4.472-0.994zM19.925 22.36c1.689-2.186 2.882-4.075 3.677-5.665 0.696-1.59 1.093-3.379 1.093-5.168 0-1.59-0.398-3.081-1.193-4.373-0.696-1.391-1.789-2.484-3.18-3.28-1.292-0.795-2.783-1.193-4.273-1.193-1.59 0-3.081 0.397-4.373 1.193-1.391 0.795-2.385 1.888-3.18 3.28-0.795 1.292-1.193 2.783-1.193 4.373 0 1.789 0.397 3.578 1.193 5.168 0.696 1.59 1.888 3.478 3.578 5.665 0.696 0.994 1.988 2.683 3.975 5.168 1.888-2.484 3.18-4.174 3.876-5.168z"></path>
</symbol>
<symbol id="wci-minus" viewBox="0 0 32 32">
<title>minus</title>
<path d="M32 17.719h-32v-3.438h32z"></path>
</symbol>
<symbol id="wci-mountain-small" viewBox="0 0 32 32">
<title>mountain-small</title>
<path d="M9.878 16.98l5.469 5.633h16.653l-12.898-13.225-5.061 5.143 2.122 2.204 2.939-2.939 5.469 5.633h-7.918l-6.776-6.939-9.878 10.122h4.327l5.551-5.633"></path>
</symbol>
<symbol id="wci-phone" viewBox="0 0 32 32">
<title>phone</title>
<path d="M7.773 31.95c-0.909 0-1.716-0.202-2.625-0.606-0.808-0.404-1.514-1.009-2.12-1.716s-1.211-1.514-1.716-2.322c-0.404-0.808-0.808-1.716-1.009-2.625-0.303-0.909-0.303-1.615-0.101-2.12 0.303-0.505 0.808-0.909 1.615-1.312s2.221-1.009 4.038-1.817c1.009-0.404 1.817-0.808 2.524-1.11 0.606-0.303 1.11-0.404 1.413-0.404 0.707 0 1.312 0.303 1.918 0.909l1.615 1.615c1.413-0.909 2.826-1.918 3.937-3.129 1.211-1.211 2.221-2.524 3.129-3.937l-1.615-1.615c-0.505-0.606-0.808-1.11-0.909-1.615-0.101-0.606 0.101-1.11 0.404-1.716 0.202-0.505 0.606-1.312 1.11-2.524 0.808-1.817 1.514-3.23 1.817-4.038 0.101-0.202 0.202-0.404 0.303-0.505 0.101-0.202 0.202-0.404 0.404-0.606 0.101-0.202 0.404-0.404 0.606-0.505 0.303-0.101 0.606-0.202 0.909-0.202s0.707 0.101 1.211 0.303c0.909 0.202 1.817 0.606 2.625 1.009 0.909 0.505 1.615 1.11 2.322 1.716s1.312 1.413 1.716 2.221c0.505 0.808 0.707 1.716 0.707 2.524-0.101 2.019-0.808 4.543-2.322 7.47-1.514 3.028-3.533 5.754-6.158 8.278-2.524 2.625-5.249 4.644-8.278 6.158-2.927 1.514-5.451 2.221-7.47 2.221v0zM3.028 23.874v0c0.404 1.413 1.009 2.625 1.918 3.634 0.909 1.11 1.817 1.615 2.826 1.615v0c1.009 0 2.12-0.303 3.533-0.808 1.514-0.505 3.129-1.312 5.047-2.524 1.817-1.211 3.634-2.524 5.249-4.139s2.927-3.432 4.139-5.249c1.211-1.918 2.12-3.634 2.625-5.047s0.707-2.625 0.707-3.533c0.101-0.909-0.505-1.918-1.514-2.826-1.11-0.909-2.322-1.514-3.735-1.918v0c-0.202 0.404-0.808 1.716-1.918 4.038-0.303 0.707-0.707 1.514-1.11 2.423 0 0.101 0 0.101 0 0.202 0 0 0 0 0 0l3.028 3.028-0.404 0.909c-1.009 2.019-2.322 3.836-4.139 5.653-1.716 1.716-3.634 3.129-5.653 4.139l-0.909 0.404-3.028-3.028c0 0-0.101 0-0.202 0-1.514 0.707-2.322 1.11-2.423 1.11-1.211 0.606-2.625 1.211-4.038 1.918z"></path>
</symbol>
<symbol id="wci-plus" viewBox="0 0 32 32">
<title>plus</title>
<path d="M32 14.156v3.687h-14.091v14.091h-3.819v-14.091h-14.091v-3.687h14.091v-14.091h3.819v14.091z"></path>
</symbol>
<symbol id="wci-print" viewBox="0 0 32 32">
<title>print</title>
<path d="M28.636 9.591c0.909 0 1.727 0.364 2.364 1s1 1.455 1 2.364v10.182c0 0.909-0.364 1.727-1 2.364s-1.455 0.909-2.364 0.909h-1.273v-2.545h1.273c0.182 0 0.364 0 0.545-0.182s0.182-0.364 0.182-0.545v-10.182c0-0.273 0-0.455-0.182-0.545-0.182-0.182-0.364-0.273-0.545-0.273h-25.273c-0.182 0-0.364 0.091-0.545 0.273-0.091 0.091-0.182 0.273-0.182 0.545v10.182c0 0.182 0.091 0.364 0.182 0.545 0.182 0.182 0.364 0.182 0.545 0.182h1.273v2.545h-1.273c-0.909 0-1.727-0.273-2.364-0.909s-1-1.455-1-2.364v-10.182c0-0.909 0.364-1.727 1-2.364s1.455-1 2.364-1h3.364v-7.636h18.545v7.636h3.364zM9.273 4.5v5.091h13.455v-5.091zM6.727 30.045v-11.273h18.545v11.273zM9.273 21.318v6.182h13.455v-6.182zM27.364 14.227v2.545h-2.636v-2.545z"></path>
</symbol>
<symbol id="wci-question" viewBox="0 0 32 32">
<title>question</title>
<path d="M16 0c2.171 0 4.229 0.457 6.286 1.257 1.943 0.914 3.657 2.057 5.029 3.429 1.486 1.486 2.629 3.2 3.429 5.143 0.914 1.943 1.257 4 1.257 6.171s-0.343 4.229-1.143 6.171c-0.8 1.943-2.057 3.657-3.543 5.143s-3.2 2.743-5.143 3.543c-1.943 0.8-4 1.143-6.171 1.143s-4.229-0.343-6.171-1.257c-1.943-0.8-3.657-1.943-5.143-3.429-1.371-1.371-2.514-3.086-3.429-5.143-0.8-1.943-1.257-4-1.257-6.171s0.457-4.114 1.257-6.057c0.8-1.943 1.943-3.771 3.429-5.257 1.6-1.486 3.314-2.629 5.257-3.429s4-1.257 6.057-1.257zM25.143 25.143c1.257-1.257 2.171-2.629 2.743-4.229 0.686-1.486 1.029-3.2 1.029-4.914 0-2.286-0.571-4.457-1.714-6.4-1.143-2.057-2.743-3.543-4.686-4.686-2.057-1.143-4.114-1.714-6.514-1.714-1.714 0-3.314 0.229-4.914 0.914s-2.971 1.6-4.114 2.857c-1.257 1.143-2.171 2.514-2.857 4.114-0.571 1.6-0.914 3.2-0.914 4.914 0 2.4 0.571 4.457 1.714 6.514 1.143 1.943 2.743 3.543 4.686 4.686s4.114 1.714 6.4 1.714c1.714 0 3.429-0.343 4.914-1.029 1.6-0.571 2.971-1.6 4.229-2.743zM14.4 24.229v-3.314h3.314v3.314zM16.343 7.2c1.486 0 2.743 0.457 3.771 1.257 1.029 0.914 1.486 2.057 1.486 3.314 0 0.571-0.114 1.257-0.457 1.714-0.229 0.571-0.571 1.029-0.914 1.371-0.457 0.457-0.8 0.8-1.143 1.143-0.457 0.343-0.686 0.686-1.029 1.029-0.229 0.457-0.343 0.8-0.343 1.257v0.686h-3.314v-1.029c0-0.686 0.114-1.257 0.343-1.829 0.343-0.457 0.571-0.914 0.914-1.257 0.457-0.343 0.8-0.686 1.143-0.914 0.343-0.343 0.686-0.686 1.029-1.029 0.229-0.343 0.457-0.686 0.457-1.029 0.114-0.571-0.114-1.143-0.457-1.486s-0.8-0.571-1.486-0.571c-0.571 0-1.029 0.229-1.371 0.8-0.343 0.457-0.571 1.143-0.571 1.829h-3.314c0-1.6 0.571-2.857 1.486-3.886 1.029-0.914 2.286-1.371 3.771-1.371z"></path>
</symbol>
<symbol id="wci-revcounter" viewBox="0 0 32 32">
<title>revcounter</title>
<path d="M26.353 7.872c-5.733-5.733-14.973-5.733-20.706 0-5.647 5.733-5.647 15.059 0 20.791l1.198 1.198 4.535-4.62-2.225-2.396-2.225 2.225c-1.198-1.54-1.882-3.337-2.139-5.134h3.080v-3.337h-3.080c0.257-1.797 0.941-3.594 2.139-5.219l2.225 2.225 2.225-2.31-2.139-2.225c1.54-1.112 3.337-1.882 5.134-2.139v3.166h3.251v-3.166c1.797 0.257 3.594 1.027 5.134 2.139l-5.904 6.075c-0.257-0.086-0.599-0.171-0.856-0.171-1.797 0-3.251 1.455-3.251 3.251 0 1.882 1.455 3.337 3.251 3.337s3.251-1.455 3.251-3.337c0-0.257-0.086-0.513-0.086-0.77l5.904-6.075c1.198 1.626 1.882 3.422 2.139 5.219h-3.080v3.337h3.080c-0.257 1.797-0.941 3.594-2.139 5.134l-2.225-2.225-2.225 2.396 4.535 4.62 1.198-1.198c5.647-5.733 5.647-15.059 0-20.791"></path>
</symbol>
<symbol id="wci-search" viewBox="0 0 32 32">
<title>search</title>
<path d="M32 29.746l-2.254 2.254-8.451-8.451c-2.366 1.803-5.070 2.704-8.113 2.704-1.803 0-3.38-0.338-5.070-0.901-1.577-0.676-3.042-1.69-4.282-2.93s-2.141-2.592-2.817-4.282c-0.676-1.577-1.014-3.268-1.014-4.958 0-1.803 0.338-3.493 1.014-5.070s1.577-3.042 2.817-4.282c1.239-1.239 2.704-2.141 4.282-2.817 1.69-0.676 3.268-1.014 5.070-1.014 1.69 0 3.38 0.338 5.070 1.014 1.577 0.676 2.93 1.577 4.169 2.817s2.254 2.704 2.93 4.282c0.676 1.577 1.014 3.268 1.014 5.070 0 2.93-1.014 5.634-2.817 8.113zM6.085 20.169c2.028 1.916 4.282 2.93 7.099 2.93 2.704 0 5.070-1.014 6.986-2.93 2.028-1.916 2.93-4.282 2.93-6.986 0-2.817-0.901-5.070-2.93-7.099-1.916-1.915-4.282-2.817-6.986-2.817-2.817 0-5.070 0.901-6.986 2.817-2.028 2.028-2.93 4.282-2.93 7.099 0 2.704 0.901 5.070 2.817 6.986z"></path>
</symbol>
<symbol id="wci-smoke" viewBox="0 0 32 32">
<title>smoke</title>
<path d="M21.37 16.658l3.069 0.548-2.192 13.699-3.069-0.548zM5.699 21.26c-1.644-0.438-2.959-1.425-4.055-2.74-1.096-1.425-1.644-2.959-1.644-4.712 0-2.082 0.767-3.836 2.192-5.37 1.534-1.534 3.288-2.301 5.479-2.411 0.767-1.534 1.973-2.74 3.397-3.616 1.534-0.877 3.178-1.315 4.931-1.315s3.397 0.438 4.931 1.315c1.534 0.877 2.63 2.082 3.507 3.616 2.082 0.11 3.836 0.877 5.37 2.411 1.425 1.425 2.192 3.288 2.192 5.37 0 1.753-0.548 3.288-1.644 4.712-0.986 1.315-2.411 2.301-4.055 2.74l0.548-3.726c0.658-0.438 1.096-0.986 1.534-1.644 0.329-0.658 0.438-1.315 0.438-2.082 0-1.315-0.438-2.411-1.425-3.397-0.986-0.877-2.082-1.315-3.397-1.315l-1.644 0.11-0.438-1.096c-0.438-1.205-1.205-2.192-2.301-2.849s-2.301-1.096-3.616-1.096c-1.315 0-2.521 0.438-3.616 1.096s-1.863 1.644-2.301 2.849l-0.438 1.096c-0.548-0.11-1.096-0.11-1.534-0.11-1.425 0-2.521 0.438-3.507 1.315-0.986 0.986-1.425 2.082-1.425 3.397 0 0.767 0.219 1.425 0.548 2.082s0.767 1.205 1.425 1.644zM10.74 16.658l2.082 13.699-3.069 0.548-2.082-13.699zM14.466 12.274h3.069v12.493h-3.069z"></path>
</symbol>
<symbol id="wci-steeringwheel" viewBox="0 0 32 32">
<title>steeringwheel</title>
<path d="M17.974 27.74v-4.052c-0.623 0.208-1.247 0.312-1.974 0.312s-1.351-0.104-1.974-0.312v4.052c-4.987-0.831-8.935-4.779-9.766-9.766h6.13c0.831 2.286 3.013 4.052 5.61 4.052s4.779-1.766 5.61-4.052h6.13c-0.831 4.987-4.779 8.935-9.766 9.766zM17.974 16c0 1.143-0.831 1.974-1.974 1.974s-1.974-0.831-1.974-1.974c0-1.143 0.831-1.974 1.974-1.974s1.974 0.831 1.974 1.974zM16 4.052c5.922 0 10.805 4.26 11.74 9.974h-6.13c-0.831-2.39-3.013-4.052-5.61-4.052s-4.779 1.662-5.61 4.052h-6.13c0.935-5.714 5.818-9.974 11.74-9.974zM16 0c-8.831 0-16 7.169-16 16s7.169 16 16 16c8.831 0 16-7.169 16-16s-7.169-16-16-16z"></path>
</symbol>
<symbol id="wci-sun" viewBox="0 0 32 32">
<title>sun</title>
<path d="M17.345 12.708c-0.425-0.071-0.85-0.071-1.345-0.071-0.425 0-0.85 0-1.345 0.071v-5.451h2.69zM24.425 16.814c-0.566-0.708-1.133-1.345-1.841-1.912l3.823-3.894 1.841 1.912zM9.487 14.903c-0.708 0.566-1.345 1.204-1.912 1.912l-3.823-3.894 1.911-1.912zM26.619 22.053h5.381v2.69h-5.31v-1.345c0-0.496-0.071-0.92-0.071-1.345zM5.451 22.053c-0.071 0.425-0.071 0.92-0.071 1.345v1.345h-5.381v-2.69zM16 13.982c5.168 0 9.345 4.177 9.345 9.416v1.345h-18.69v-1.345c0-5.239 4.248-9.416 9.345-9.416zM9.487 22.053h13.097c-0.637-3.044-3.327-5.381-6.584-5.381-3.186 0-5.876 2.336-6.513 5.381z"></path>
</symbol>
<symbol id="wci-tick" viewBox="0 0 32 32">
<title>tick</title>
<path d="M13.88 31.357l-13.88-17.478 2.956-2.185 10.538 13.494 15.422-24.546 3.084 1.928z"></path>
</symbol>
<symbol id="wci-user" viewBox="0 0 32 32">
<title>user</title>
<path d="M16 17.722c-2.228 0-4.051-0.911-5.57-2.734s-2.329-4.152-2.329-6.886c0-1.418 0.405-2.734 1.114-3.949 0.709-1.316 1.722-2.228 2.937-3.038 1.215-0.709 2.532-1.114 3.848-1.114 1.418 0 2.734 0.405 3.949 1.114 1.215 0.81 2.228 1.722 2.937 3.038 0.709 1.215 1.114 2.532 1.114 3.949 0 2.734-0.81 5.063-2.329 6.886s-3.342 2.734-5.671 2.734zM16 2.835c-1.316 0-2.532 0.506-3.544 1.62-1.013 1.013-1.62 2.228-1.62 3.646 0 2.025 0.506 3.646 1.519 4.962s2.228 1.924 3.646 1.924c1.519 0 2.734-0.608 3.747-1.924s1.418-2.937 1.418-4.962c0-1.418-0.506-2.633-1.519-3.646-1.013-1.114-2.228-1.62-3.646-1.62zM4.152 32h-2.835l0.304-2.937c0.304-2.835 1.722-5.165 4.152-6.684 2.532-1.519 5.873-2.329 10.228-2.329s7.797 0.81 10.329 2.329c2.43 1.519 3.848 3.747 4.152 6.684l0.203 2.937h-2.734l-0.304-2.633c-0.101-1.013-0.405-1.924-0.911-2.734s-1.215-1.418-1.924-1.924c-0.81-0.405-1.62-0.81-2.633-1.114s-2.025-0.506-3.038-0.608c-1.013-0.101-2.025-0.101-3.139-0.101-1.013 0-2.127 0-3.038 0.101-1.013 0.101-2.025 0.304-3.038 0.608s-1.823 0.709-2.633 1.215c-0.709 0.405-1.418 1.013-1.924 1.823s-0.81 1.722-0.911 2.734z"></path>
</symbol>
<symbol id="wci-user-couple" viewBox="0 0 32 32">
<title>user-couple</title>
<path d="M31.904 26.299l0.096 1.341h-2.587l-0.096-1.245c-0.287-2.491-2.395-3.737-6.515-3.737-0.479 0-0.958 0.096-1.341 0.096-0.287-0.958-0.671-1.82-1.15-2.491 0.766-0.192 1.629-0.192 2.491-0.192 2.683 0 4.886 0.479 6.419 1.629 1.629 1.054 2.491 2.587 2.683 4.599zM10.060 17.868c1.533 0 2.874 0.192 4.024 0.479 1.245 0.287 2.108 0.671 2.874 1.15 0.671 0.383 1.245 0.958 1.725 1.533 0.479 0.671 0.766 1.245 0.958 1.725 0.192 0.575 0.287 1.15 0.287 1.725l0.096 3.162h-2.587l-0.096-2.97c-0.096-1.341-0.766-2.395-2.012-3.066-1.341-0.766-3.066-1.054-5.269-1.054-2.299 0-4.024 0.287-5.269 1.054-1.245 0.671-1.916 1.725-2.108 3.066l-0.096 2.97h-2.587l0.096-3.162c0.096-0.575 0.192-1.15 0.383-1.629 0.096-0.575 0.479-1.15 0.958-1.725 0.479-0.671 1.054-1.245 1.725-1.629 0.671-0.479 1.629-0.862 2.778-1.15 1.245-0.287 2.587-0.479 4.12-0.479zM22.802 18.443c-1.533 0-2.874-0.575-3.928-1.82-0.958-1.15-1.533-2.587-1.533-4.311 0-1.629 0.479-2.874 1.533-3.832s2.299-1.437 3.928-1.437c1.533 0 2.874 0.479 3.928 1.437 0.958 0.958 1.437 2.204 1.437 3.832 0 1.725-0.479 3.162-1.533 4.311-1.054 1.245-2.299 1.82-3.832 1.82zM22.802 9.629c-0.192 0-0.383 0-0.575 0s-0.479 0.096-0.766 0.192c-0.287 0.096-0.479 0.287-0.671 0.479-0.287 0.192-0.479 0.383-0.575 0.766-0.192 0.287-0.287 0.766-0.287 1.15 0 1.054 0.287 1.916 0.862 2.587 0.479 0.671 1.15 1.054 2.012 1.054 0.766 0 1.437-0.383 2.012-1.054s0.766-1.533 0.766-2.587c0-0.383 0-0.862-0.192-1.15-0.192-0.383-0.383-0.575-0.575-0.766s-0.479-0.383-0.766-0.479c-0.287-0.096-0.479-0.192-0.671-0.192s-0.383 0-0.575 0zM10.060 16.24c-1.629 0-3.066-0.575-4.12-1.82s-1.629-2.778-1.629-4.599c0-1.629 0.575-2.97 1.629-4.024 0.958-0.958 2.395-1.437 4.12-1.437 1.629 0 3.066 0.479 4.12 1.437 1.054 1.054 1.533 2.395 1.533 4.024 0 1.82-0.575 3.353-1.629 4.599s-2.491 1.82-4.024 1.82zM10.060 6.85c-0.383 0-0.671 0.096-1.054 0.192-0.287 0-0.575 0.192-0.958 0.383s-0.575 0.479-0.862 0.862c-0.192 0.383-0.287 0.862-0.287 1.533 0 1.054 0.287 2.012 0.862 2.778 0.575 0.671 1.341 1.054 2.299 1.054 0.862 0 1.629-0.383 2.204-1.054 0.575-0.766 0.862-1.725 0.862-2.778 0-0.671-0.096-1.15-0.287-1.533s-0.479-0.671-0.862-0.862c-0.287-0.192-0.671-0.383-0.958-0.383-0.287-0.096-0.671-0.192-0.958-0.192z"></path>
</symbol>
<symbol id="wci-user-family" viewBox="0 0 32 32">
<title>user-family</title>
<path d="M2.55 23.321l-0.165 2.139h-2.386l0.165-2.386c0.082-1.481 0.74-2.715 1.892-3.537s2.632-1.234 4.607-1.234c0.411 0 0.823 0 1.152 0.082-0.494 0.658-0.823 1.481-0.987 2.468-0.082 0-0.082 0-0.082 0-0.082-0.082-0.082-0.082-0.082-0.082-0.74 0-1.316 0.082-1.892 0.247-0.494 0.165-0.905 0.329-1.152 0.494-0.329 0.165-0.494 0.411-0.658 0.658s-0.329 0.494-0.329 0.658c-0.082 0.165-0.082 0.329-0.082 0.494zM31.835 23.075l0.165 2.386h-2.386l-0.165-2.139c0-0.247-0.082-0.411-0.082-0.494-0.082-0.165-0.165-0.411-0.329-0.658s-0.411-0.494-0.658-0.658c-0.247-0.165-0.658-0.329-1.234-0.494-0.494-0.165-1.069-0.247-1.81-0.247 0 0 0 0-0.082 0.082 0 0-0.082 0-0.082 0-0.165-0.905-0.494-1.727-0.987-2.468 0.329-0.082 0.74-0.082 1.152-0.082 1.892 0 3.455 0.411 4.607 1.234 1.069 0.823 1.727 2.057 1.892 3.537zM10.941 22.005l-0.247 3.455h-2.468l0.329-3.62c0.165-1.645 0.905-2.879 2.139-3.784 1.316-0.823 3.044-1.316 5.265-1.316s4.031 0.494 5.265 1.316c1.316 0.905 2.057 2.139 2.221 3.702l0.247 3.702h-2.386l-0.247-3.455c-0.165-0.905-0.576-1.563-1.481-2.057-0.823-0.411-2.057-0.658-3.62-0.658-1.481 0-2.715 0.247-3.62 0.658-0.823 0.494-1.316 1.152-1.398 2.057zM6.17 17.234c-1.234 0-2.221-0.411-2.961-1.316-0.823-0.905-1.234-1.974-1.234-3.29 0-1.152 0.411-2.139 1.234-2.879 0.74-0.74 1.727-1.152 2.961-1.152 1.152 0 2.139 0.329 2.961 1.152 0.74 0.74 1.152 1.727 1.152 2.879 0 1.316-0.411 2.386-1.152 3.29-0.823 0.905-1.81 1.316-2.961 1.316zM6.17 11.064c-0.494 0-0.823 0.082-1.152 0.329-0.329 0.329-0.494 0.658-0.494 1.234s0.165 1.152 0.411 1.563c0.329 0.411 0.74 0.658 1.234 0.658 0.411 0 0.823-0.247 1.152-0.658s0.494-0.987 0.494-1.563c0-0.576-0.165-0.905-0.494-1.234-0.329-0.247-0.74-0.329-1.152-0.329zM25.337 17.234c-1.234 0-2.221-0.411-2.961-1.316-0.823-0.905-1.234-1.974-1.234-3.29 0-1.152 0.411-2.139 1.234-2.879 0.74-0.74 1.727-1.152 2.961-1.152 1.152 0 2.139 0.411 2.961 1.152 0.74 0.74 1.152 1.727 1.152 2.879 0 1.316-0.411 2.386-1.152 3.29-0.823 0.905-1.81 1.316-2.961 1.316zM25.255 11.064c-0.411 0-0.823 0.082-1.152 0.329-0.247 0.329-0.411 0.658-0.411 1.234s0.082 1.152 0.411 1.563c0.329 0.411 0.74 0.658 1.152 0.658 0.494 0 0.905-0.247 1.234-0.658 0.247-0.411 0.411-0.987 0.411-1.563s-0.165-0.987-0.411-1.234c-0.329-0.247-0.74-0.329-1.234-0.329zM15.712 15.753c-1.234 0-2.303-0.494-3.126-1.398-0.823-0.987-1.234-2.139-1.234-3.537 0-1.234 0.411-2.221 1.234-3.044s1.892-1.234 3.126-1.234c1.234 0 2.303 0.411 3.126 1.234 0.905 0.823 1.316 1.81 1.316 3.044 0 1.398-0.411 2.55-1.316 3.537-0.823 0.905-1.892 1.398-3.126 1.398zM15.712 9.008c-0.494 0-0.987 0.165-1.316 0.494-0.411 0.329-0.576 0.74-0.576 1.316 0 0.658 0.165 1.316 0.576 1.727 0.329 0.494 0.823 0.74 1.316 0.74 0.576 0 0.987-0.247 1.398-0.74 0.329-0.411 0.494-1.069 0.494-1.727 0-0.576-0.165-0.987-0.494-1.316-0.411-0.329-0.823-0.494-1.398-0.494z"></path>
</symbol>
<symbol id="wci-youtube" viewBox="0 0 32 32">
<title>youtube</title>
<path d="M30.167 5.833c0.667 0.583 1.083 1.417 1.333 2.333 0.5 2.5 0.5 5.167 0.5 7.75v0 0.083c0 1.25 0 2.583-0.083 3.917 0 1.25-0.167 2.583-0.417 3.833-0.25 1-0.75 1.75-1.333 2.417-0.667 0.583-1.5 1-2.417 1.083-1.917 0.25-3.833 0.333-5.833 0.417s-3.917 0.083-5.917 0.083c-1.917 0-3.917 0-5.833-0.083-2-0.083-4-0.167-5.917-0.417-0.917-0.083-1.667-0.5-2.333-1.083-0.667-0.667-1.167-1.417-1.333-2.417-0.25-1.25-0.417-2.583-0.5-3.833-0.083-1.333-0.083-2.667-0.083-3.917 0-1.333 0-2.583 0.083-3.917s0.25-2.667 0.5-3.917c0.25-0.917 0.667-1.75 1.333-2.333 0.667-0.667 1.417-1 2.333-1.167 2-0.167 3.917-0.333 5.917-0.333 1.917-0.083 3.917-0.083 5.833-0.083 2 0 3.917 0 5.917 0.083 2 0 3.917 0.167 5.833 0.333 0.917 0.167 1.75 0.5 2.417 1.167zM22.083 15.333c-1.833-1-3.583-2-5.417-2.917-1.5-0.833-3-1.667-4.5-2.5l-0.5-0.25v12l0.5-0.333c1.667-0.833 3.333-1.75 4.917-2.667l5-2.667 0.583-0.333z"></path>
</symbol>
<symbol id="wci-twitter" viewBox="0 0 32 32">
<title>twitter</title>
<path d="M31.039 2.931c-1.249 0.769-2.595 1.345-4.132 1.634-1.153-1.249-2.883-2.114-4.805-2.114-3.556 0-6.535 3.075-6.535 6.823 0 0.577 0.096 1.057 0.192 1.538-5.477-0.288-10.282-2.979-13.55-7.111-0.577 0.961-0.865 2.21-0.865 3.459 0 2.306 1.153 4.42 2.883 5.67-1.057 0-2.114-0.384-2.979-0.865v0.096c0 3.267 2.306 6.054 5.285 6.727-0.577 0.096-1.153 0.192-1.73 0.192-0.384 0-0.865 0-1.249-0.096 0.865 2.691 3.267 4.709 6.15 4.709-2.21 1.826-5.093 2.979-8.168 2.979-0.48 0-1.057-0.096-1.538-0.096 2.883 1.922 6.342 3.075 10.090 3.075 12.012 0 18.643-10.474 18.643-19.508 0-0.288 0-0.577 0-0.865 1.249-0.961 2.402-2.114 3.267-3.556-1.249 0.577-2.498 0.961-3.844 1.057 1.441-0.769 2.402-2.114 2.883-3.748"></path>
</symbol>
<symbol id="wci-facebook" viewBox="0 0 32 32">
<title>facebook</title>
<path d="M32 30.184c0 1.021-0.794 1.816-1.702 1.816h-8.17v-12.482h4.085l0.681-4.766h-4.766v-3.064c0-1.362 0.34-2.383 2.383-2.383h2.496v-4.312c-0.454 0-1.929-0.227-3.631-0.227-3.745 0-6.241 2.269-6.241 6.468v3.518h-4.199v4.766h4.199v12.482h-15.319c-1.021 0-1.816-0.794-1.816-1.816v-28.482c0-0.908 0.794-1.702 1.816-1.702h28.482c0.908 0 1.702 0.794 1.702 1.702v28.482"></path>
</symbol>
<symbol id="wci-email" viewBox="0 0 32 32">
<title>email</title>
<path d="M28.916 23.614v-10.988l3.084-2.602v18.313h-32v-18.892l3.181 2.602v11.566l5.976-7.325 2.506 1.831-5.783 7.133h20.337l-5.494-6.747 2.506-1.831zM0 3.663h32v3.181l-12.627 9.446c-0.771 0.578-1.735 0.867-2.892 0.867s-2.217-0.289-2.988-0.867l-13.494-10.024v-2.602zM17.542 13.88l9.831-7.133h-21.88l9.831 7.133c0.289 0.193 0.675 0.289 1.157 0.289 0.386 0 0.771-0.096 1.060-0.289z"></path>
</symbol>
<symbol id="wci-star1" viewBox="0 0 32 32">
<title>star1</title>
<path d="M16 0 L21 11 L32 12 L23 19 L26 31 L16 25 L6 31 L9 19 L0 12 L11 11"/>
</symbol>
<symbol id="wci-star2" viewBox="0 0 32 32">
<title>star2</title>
<path d="M10.571 21.476h11.238l-0.381-2.286 4-3.81c0.667-0.667 0.476-1.333-0.476-1.524l-5.524-0.762-2.476-4.952c-0.381-0.857-1.143-0.857-1.619 0l-2.381 4.952-5.524 0.762c-0.952 0.19-1.238 0.857-0.476 1.524l4 3.81zM16 26.333l-7.429 3.905c-1.81 0.857-2.952 0.095-2.571-1.905l1.429-8.19-6-5.81c-1.429-1.429-1.048-2.762 0.952-3.048l8.286-1.143 3.714-7.524c0.952-1.714 2.381-1.714 3.238 0l3.714 7.524 8.286 1.143c2 0.286 2.381 1.619 0.952 3.048l-6 5.81 1.429 8.19c0.381 2-0.762 2.762-2.571 1.905z"></path>
</symbol>
<symbol id="wci-star3" viewBox="0 0 32 32">
<title>star3</title>
<path d="M25.81 19l-1.143 1.714 1.333 7.619c0.381 2-0.762 2.762-2.571 1.905l-7.429-3.905-7.429 3.905c-1.81 0.857-2.952 0.095-2.571-1.905l1.429-8.19-6-5.81c-1.429-1.429-1.048-2.762 0.952-3.048l8.286-1.143 3.714-7.524c0.952-1.714 2.381-1.714 3.238 0l3.714 7.524 8.286 1.143c2 0.286 2.381 1.619 0.952 3.048zM7.619 16.048h17.048l0.762-0.667c0.667-0.667 0.476-1.333-0.476-1.524l-5.524-0.762-2.476-4.952c-0.381-0.857-1.143-0.857-1.619 0l-2.381 4.952-5.524 0.762c-0.952 0.19-1.238 0.857-0.476 1.524z"></path>
</symbol>
<symbol id="wci-menu" viewBox="0 0 32 32">
<title>menu</title>
<path d="M0 5.926h32v3.358h-32zM0 14.321h26.074v3.358h-26.074zM0 22.716h26.074v3.358h-26.074z"></path>
</symbol>
</defs>
</svg>
